<svg xmlns="http://www.w3.org/2000/svg" width="88" height="88" viewBox="0 0 88 88" fill="none">
    <path d="M65 17C67.2091 17 69 15.2091 69 13C69 10.7909 67.2091 9 65 9C62.7909 9 61 10.7909 61 13C61 15.2091 62.7909 17 65 17Z" fill="#F0F1F2"/>
    <path d="M14 5C16.21 5 18 6.79 18 9C18 11.21 16.21 13 14 13C11.79 13 10 11.21 10 9C10 6.79 11.79 5 14 5Z" fill="#F0F1F2"/>
    <path d="M80 9C81.104 9 82 9.896 82 11C82 12.104 81.104 13 80 13C78.896 13 78 12.104 78 11C78 9.896 78.896 9 80 9Z" fill="#DBDEE0"/>
    <path d="M86 44C87.104 44 88 44.896 88 46C88 47.104 87.104 48 86 48C84.896 48 84 47.104 84 46C84 44.896 84.896 44 86 44Z" fill="#DBDEE0"/>
    <path d="M6 70C7.104 70 8 70.896 8 72C8 73.104 7.104 74 6 74C4.8958 74 4 73.104 4 72C4 70.896 4.8958 70 6 70Z" fill="#DBDEE0"/>
    <path d="M3.3335 25C4.4375 25 5.3335 25.896 5.3335 27C5.3335 28.104 4.4375 29 3.3335 29C2.2293 29 1.3335 28.104 1.3335 27C1.3335 25.896 2.2293 25 3.3335 25Z" fill="#DBDEE0"/>
    <ellipse cx="44" cy="76" rx="21" ry="4" fill="#F0F1F2"/>
    <path d="M36 53.25H46C46.4333 53.25 46.792 53.1087 47.076 52.826C47.3587 52.542 47.5 52.1833 47.5 51.75C47.5 51.35 47.3587 51 47.076 50.7C46.792 50.4 46.4333 50.25 46 50.25H36C35.5667 50.25 35.2087 50.4 34.926 50.7C34.642 51 34.5 51.35 34.5 51.75C34.5 52.1833 34.642 52.542 34.926 52.826C35.2087 53.1087 35.5667 53.25 36 53.25ZM36 45.5H52C52.4333 45.5 52.792 45.358 53.076 45.074C53.3587 44.7913 53.5 44.4333 53.5 44C53.5 43.5667 53.3587 43.208 53.076 42.924C52.792 42.6413 52.4333 42.5 52 42.5H36C35.5667 42.5 35.2087 42.6413 34.926 42.924C34.642 43.208 34.5 43.5667 34.5 44C34.5 44.4333 34.642 44.7913 34.926 45.074C35.2087 45.358 35.5667 45.5 36 45.5ZM36 37.75H52C52.4333 37.75 52.792 37.6 53.076 37.3C53.3587 37 53.5 36.65 53.5 36.25C53.5 35.8167 53.3587 35.4587 53.076 35.176C52.792 34.892 52.4333 34.75 52 34.75H36C35.5667 34.75 35.2087 34.892 34.926 35.176C34.642 35.4587 34.5 35.8167 34.5 36.25C34.5 36.65 34.642 37 34.926 37.3C35.2087 37.6 35.5667 37.75 36 37.75ZM30.6 58H57.4C57.5333 58 57.6667 57.9333 57.8 57.8C57.9333 57.6667 58 57.5333 58 57.4V30.6C58 30.4667 57.9333 30.3333 57.8 30.2C57.6667 30.0667 57.5333 30 57.4 30H30.6C30.4667 30 30.3333 30.0667 30.2 30.2C30.0667 30.3333 30 30.4667 30 30.6V57.4C30 57.5333 30.0667 57.6667 30.2 57.8C30.3333 57.9333 30.4667 58 30.6 58ZM30 30V58V30ZM30.6 61C29.6 61 28.75 60.65 28.05 59.95C27.35 59.25 27 58.4 27 57.4V30.6C27 29.6 27.35 28.75 28.05 28.05C28.75 27.35 29.6 27 30.6 27H39.5C39.6333 25.9 40.1253 24.958 40.976 24.174C41.8253 23.3913 42.8333 23 44 23C45.2 23 46.2167 23.3913 47.05 24.174C47.8833 24.958 48.3667 25.9 48.5 27H57.4C58.4 27 59.25 27.35 59.95 28.05C60.65 28.75 61 29.6 61 30.6V57.4C61 58.4 60.65 59.25 59.95 59.95C59.25 60.65 58.4 61 57.4 61H30.6ZM44 28.7C44.4333 28.7 44.792 28.558 45.076 28.274C45.3587 27.9913 45.5 27.6333 45.5 27.2C45.5 26.7667 45.3587 26.408 45.076 26.124C44.792 25.8413 44.4333 25.7 44 25.7C43.5667 25.7 43.2087 25.8413 42.926 26.124C42.642 26.408 42.5 26.7667 42.5 27.2C42.5 27.6333 42.642 27.9913 42.926 28.274C43.2087 28.558 43.5667 28.7 44 28.7Z" fill="#C1C5CA"/>
    <script xmlns="" id="bw-fido2-page-script"/></svg>