<?xml version="1.0" encoding="UTF-8"?>
<svg width="15px" height="15px" viewBox="0 0 15 15" version="1.1" xmlns="http://www.w3.org/2000/svg" xmlns:xlink="http://www.w3.org/1999/xlink">
    <!-- Generator: Sketch 58 (84663) - https://sketch.com -->
    <title>ic_calendar_green</title>
    <desc>Created with Sketch.</desc>
    <g id="Dashboard" stroke="none" stroke-width="1" fill="none" fill-rule="evenodd">
        <path d="M11.2077675,8.93873581 L11.2077675,8.93873581 L11.2077675,8.93457245 C11.2577278,8.88461212 11.328505,8.85546859 11.4117722,8.85546859 C11.490876,8.85546859 11.5658165,8.88461212 11.6157769,8.93457245 L11.6157769,8.93873581 C11.6699005,8.9928595 11.6948807,9.05947328 11.6948807,9.14274049 C11.6948807,9.21768099 11.6699005,9.29262149 11.6157769,9.34674518 C11.5658165,9.39670551 11.490876,9.43001239 11.4117722,9.43001239 C11.328505,9.43001239 11.2577278,9.39670551 11.2077675,9.34674518 C11.1578072,9.29262149 11.1203369,9.21768099 11.1203369,9.14274049 C11.1203369,9.05947328 11.1578072,8.9928595 11.2077675,8.93873581 L11.2077675,8.93873581 Z M10.7248176,9.8338584 L10.7248176,9.8338584 C10.8996788,10.0087196 11.1453171,10.1169669 11.4117722,10.1169669 C11.6782273,10.1169669 11.9238656,10.0087196 12.0987267,9.8338584 L12.0987267,9.82969504 C12.2819146,9.65067052 12.3859986,9.40503223 12.3859986,9.14274049 C12.3859986,8.86795868 12.2819146,8.63064711 12.0987267,8.45162259 C11.9238656,8.27676143 11.6782273,8.16435069 11.4117722,8.16435069 C11.1453171,8.16435069 10.8996788,8.27676143 10.7248176,8.45162259 C10.5499565,8.63064711 10.4333824,8.86795868 10.4333824,9.14274049 C10.4333824,9.40503223 10.5499565,9.65067052 10.7248176,9.82969504 L10.7248176,9.8338584 Z M8.56403333,8.93873581 L8.56403333,8.93873581 L8.56403333,8.93457245 C8.61399366,8.88461212 8.68893416,8.85546859 8.76803801,8.85546859 C8.85130523,8.85546859 8.92208237,8.88461212 8.9720427,8.93457245 L8.9720427,8.93873581 C9.03032975,8.9928595 9.05947328,9.05947328 9.05947328,9.14274049 C9.05947328,9.21768099 9.03032975,9.29262149 8.9720427,9.34674518 C8.92208237,9.39670551 8.85130523,9.43001239 8.76803801,9.43001239 C8.68893416,9.43001239 8.61399366,9.39670551 8.56403333,9.34674518 C8.50990964,9.29262149 8.48076611,9.21768099 8.48076611,9.14274049 C8.48076611,9.05947328 8.50990964,8.9928595 8.56403333,8.93873581 L8.56403333,8.93873581 Z M8.07692011,9.8338584 L8.07692011,9.8338584 C8.25594463,10.0087196 8.50158292,10.1169669 8.76803801,10.1169669 C9.03032975,10.1169669 9.27596804,10.0087196 9.45499256,9.8338584 L9.45915592,9.82969504 C9.62985372,9.65067052 9.74226446,9.40503223 9.74226446,9.14274049 C9.74226446,8.86795868 9.62985372,8.63064711 9.45915592,8.45162259 L9.45499256,8.45162259 C9.27596804,8.27676143 9.03032975,8.16435069 8.76803801,8.16435069 C8.50158292,8.16435069 8.25594463,8.27676143 8.07692011,8.45162259 C7.90205895,8.63064711 7.79381157,8.86795868 7.79381157,9.14274049 C7.79381157,9.40503223 7.90205895,9.65067052 8.07692011,9.82969504 L8.07692011,9.8338584 Z M3.28072837,11.536673 L3.28072837,11.536673 C3.32652534,11.4783859 3.40146584,11.4492424 3.48473306,11.4492424 C3.56383691,11.4492424 3.63461405,11.4783859 3.68457438,11.536673 C3.73453471,11.58247 3.7678416,11.6532471 3.7678416,11.7406777 C3.7678416,11.8197815 3.73453471,11.8863953 3.68457438,11.9446824 C3.63461405,11.9904793 3.56383691,12.0237862 3.48473306,12.0237862 C3.40146584,12.0237862 3.32652534,11.9904793 3.28072837,11.9446824 C3.22660468,11.8863953 3.18913443,11.8197815 3.18913443,11.7406777 C3.18913443,11.6532471 3.22660468,11.58247 3.28072837,11.536673 L3.28072837,11.536673 Z M2.79361515,12.4234689 L2.79361515,12.4234689 C2.96847631,12.6024934 3.20995124,12.7149041 3.48473306,12.7149041 C3.75118815,12.7149041 3.99266308,12.6024934 4.16752424,12.4234689 L4.17585096,12.4234689 C4.35487548,12.2486077 4.4589595,11.9988061 4.4589595,11.7406777 C4.4589595,11.4658959 4.35487548,11.2202576 4.17585096,11.0495598 L4.16752424,11.0495598 C3.99266308,10.8705353 3.75118815,10.7664512 3.48473306,10.7664512 C3.20995124,10.7664512 2.96847631,10.8705353 2.79361515,11.0495598 C2.61875399,11.2202576 2.50634325,11.4658959 2.50634325,11.7406777 C2.50634325,11.9988061 2.61875399,12.2486077 2.79361515,12.4234689 L2.79361515,12.4234689 Z M3.28072837,8.93873581 L3.28072837,8.93873581 L3.28072837,8.93457245 C3.32652534,8.88461212 3.40146584,8.85546859 3.48473306,8.85546859 C3.56383691,8.85546859 3.63461405,8.88461212 3.68457438,8.93457245 L3.68457438,8.93873581 C3.73453471,8.9928595 3.7678416,9.05947328 3.7678416,9.14274049 C3.7678416,9.21768099 3.73453471,9.29262149 3.68457438,9.34674518 C3.63461405,9.39670551 3.56383691,9.43001239 3.48473306,9.43001239 C3.40146584,9.43001239 3.32652534,9.39670551 3.28072837,9.34674518 C3.22660468,9.29262149 3.18913443,9.21768099 3.18913443,9.14274049 C3.18913443,9.05947328 3.22660468,8.9928595 3.28072837,8.93873581 L3.28072837,8.93873581 Z M2.79361515,9.8338584 L2.79361515,9.8338584 C2.96847631,10.0087196 3.20995124,10.1169669 3.48473306,10.1169669 C3.75118815,10.1169669 3.99266308,10.0087196 4.16752424,9.8338584 L4.17585096,9.82969504 C4.35487548,9.65067052 4.4589595,9.40503223 4.4589595,9.14274049 C4.4589595,8.86795868 4.35487548,8.63064711 4.17585096,8.45162259 L4.16752424,8.45162259 C3.99266308,8.27676143 3.75118815,8.16435069 3.48473306,8.16435069 C3.20995124,8.16435069 2.96847631,8.27676143 2.79361515,8.45162259 C2.61875399,8.63064711 2.50634325,8.86795868 2.50634325,9.14274049 C2.50634325,9.40503223 2.61875399,9.65067052 2.79361515,9.82969504 L2.79361515,9.8338584 Z M8.56403333,11.536673 L8.56403333,11.536673 C8.61399366,11.4783859 8.68893416,11.4492424 8.76803801,11.4492424 C8.85130523,11.4492424 8.92208237,11.4783859 8.9720427,11.536673 C9.03032975,11.58247 9.05947328,11.6532471 9.05947328,11.7406777 C9.05947328,11.8197815 9.03032975,11.8863953 8.9720427,11.9446824 C8.92208237,11.9904793 8.85130523,12.0237862 8.76803801,12.0237862 C8.68893416,12.0237862 8.61399366,11.9904793 8.56403333,11.9446824 C8.50990964,11.8863953 8.48076611,11.8197815 8.48076611,11.7406777 C8.48076611,11.6532471 8.50990964,11.58247 8.56403333,11.536673 L8.56403333,11.536673 Z M8.07692011,12.4234689 L8.07692011,12.4234689 C8.25594463,12.6024934 8.50158292,12.7149041 8.76803801,12.7149041 C9.03032975,12.7149041 9.27596804,12.6024934 9.45499256,12.4234689 L9.45915592,12.4234689 C9.62985372,12.2486077 9.74226446,11.9988061 9.74226446,11.7406777 C9.74226446,11.4658959 9.62985372,11.2202576 9.45915592,11.0495598 L9.45499256,11.0495598 C9.27596804,10.8705353 9.03032975,10.7664512 8.76803801,10.7664512 C8.50158292,10.7664512 8.25594463,10.8705353 8.07692011,11.0495598 C7.90205895,11.2202576 7.79381157,11.4658959 7.79381157,11.7406777 C7.79381157,11.9988061 7.90205895,12.2486077 8.07692011,12.4234689 L8.07692011,12.4234689 Z M13.7474176,3.79698512 L13.7474176,3.79698512 L1.1490876,3.79698512 L1.1490876,1.14492424 L2.27319504,1.14492424 L2.27319504,1.99841322 C2.27319504,2.31482865 2.52299669,2.56879366 2.84357548,2.56879366 C3.16415427,2.56879366 3.41811928,2.31482865 3.41811928,1.99841322 L3.41811928,1.14492424 L5.33742865,1.14492424 L5.33742865,1.99841322 C5.33742865,2.31482865 5.59555702,2.56879366 5.91613581,2.56879366 C6.23255124,2.56879366 6.48235289,2.31482865 6.48235289,1.99841322 L6.48235289,1.14492424 L8.40582562,1.14492424 L8.40582562,1.99841322 C8.40582562,2.31482865 8.66395399,2.56879366 8.98036942,2.56879366 C9.29262149,2.56879366 9.55074986,2.31482865 9.55074986,1.99841322 L9.55074986,1.14492424 L11.4742226,1.14492424 L11.4742226,1.99841322 C11.4742226,2.31482865 11.7281876,2.56879366 12.044603,2.56879366 C12.3610185,2.56879366 12.6233102,2.31482865 12.6233102,1.99841322 L12.6233102,1.14492424 L13.7474176,1.14492424 L13.7474176,3.79698512 Z M13.7474176,13.7432543 L13.7474176,13.7432543 L1.1490876,13.7432543 L1.1490876,4.48810303 L13.7474176,4.48810303 L13.7474176,13.7432543 Z M14.3219614,1.86517468e-14 L14.3219614,1.86517468e-14 L0.570380441,1.86517468e-14 C0.253965014,1.86517468e-14 8.8817842e-16,0.253965014 8.8817842e-16,0.570380441 L8.8817842e-16,14.3177981 C8.8817842e-16,14.6342135 0.253965014,14.8923419 0.570380441,14.8923419 L14.3219614,14.8923419 C14.6342135,14.8923419 14.8923419,14.6342135 14.8923419,14.3177981 L14.8923419,0.570380441 C14.8923419,0.253965014 14.6342135,1.86517468e-14 14.3219614,1.86517468e-14 L14.3219614,1.86517468e-14 Z M5.92029917,11.536673 L5.92029917,11.536673 C5.9702595,11.4783859 6.04103664,11.4492424 6.12430386,11.4492424 C6.20757107,11.4492424 6.27834821,11.4783859 6.32830854,11.536673 C6.37826887,11.58247 6.41157576,11.6532471 6.41157576,11.7406777 C6.41157576,11.8197815 6.37826887,11.8863953 6.32830854,11.9446824 C6.27834821,11.9904793 6.20757107,12.0237862 6.12430386,12.0237862 C6.04103664,12.0237862 5.9702595,11.9904793 5.92029917,11.9446824 C5.87033884,11.8863953 5.84119532,11.8197815 5.84119532,11.7406777 C5.84119532,11.6532471 5.87033884,11.58247 5.92029917,11.536673 L5.92029917,11.536673 Z M5.43318595,12.4234689 L5.43318595,12.4234689 C5.61221047,12.6024934 5.85784876,12.7149041 6.12430386,12.7149041 C6.39492231,12.7149041 6.63223388,12.6024934 6.80709504,12.4234689 L6.81542176,12.4234689 C6.98611956,12.2486077 7.10269366,11.9988061 7.10269366,11.7406777 C7.10269366,11.4658959 6.98611956,11.2202576 6.81542176,11.0495598 L6.80709504,11.0495598 C6.63223388,10.8705353 6.39492231,10.7664512 6.12430386,10.7664512 C5.85784876,10.7664512 5.61221047,10.8705353 5.43318595,11.0495598 C5.25832479,11.2202576 5.15007741,11.4658959 5.15007741,11.7406777 C5.15007741,11.9988061 5.25832479,12.2486077 5.43318595,12.4234689 L5.43318595,12.4234689 Z M8.56403333,6.34079862 L8.56403333,6.34079862 C8.61399366,6.29083829 8.68893416,6.26169476 8.76803801,6.26169476 C8.85130523,6.26169476 8.92208237,6.29083829 8.9720427,6.34079862 C9.03032975,6.39492231 9.05947328,6.46986281 9.05947328,6.5448033 C9.05947328,6.62390716 9.03032975,6.69884766 8.9720427,6.75713471 C8.92208237,6.79876832 8.85130523,6.82791184 8.76803801,6.82791184 C8.68893416,6.82791184 8.61399366,6.79876832 8.56403333,6.75713471 C8.50990964,6.69884766 8.48076611,6.62390716 8.48076611,6.5448033 C8.48076611,6.46986281 8.50990964,6.39492231 8.56403333,6.34079862 L8.56403333,6.34079862 Z M8.07692011,7.23592121 L8.07692011,7.23592121 C8.25594463,7.41494573 8.50158292,7.51902975 8.76803801,7.51902975 C9.03865647,7.51902975 9.2801314,7.41494573 9.45915592,7.23592121 C9.62985372,7.06522341 9.74226446,6.81542176 9.74226446,6.5448033 C9.74226446,6.28251157 9.62985372,6.03687328 9.45915592,5.8536854 L9.45499256,5.8536854 C9.27596804,5.6829876 9.03032975,5.57474022 8.76803801,5.57474022 C8.50158292,5.57474022 8.25594463,5.6829876 8.07692011,5.8536854 C7.90205895,6.03687328 7.79381157,6.28251157 7.79381157,6.5448033 C7.79381157,6.8112584 7.90205895,7.05689669 8.07692011,7.23592121 L8.07692011,7.23592121 Z M11.2077675,6.34079862 L11.2077675,6.34079862 C11.2577278,6.29083829 11.328505,6.26169476 11.4117722,6.26169476 C11.490876,6.26169476 11.5658165,6.29083829 11.6157769,6.34079862 C11.6699005,6.39492231 11.6948807,6.46986281 11.6948807,6.5448033 C11.6948807,6.62390716 11.6699005,6.69884766 11.6157769,6.75713471 C11.5658165,6.79876832 11.490876,6.82791184 11.4117722,6.82791184 C11.328505,6.82791184 11.2577278,6.79876832 11.2077675,6.75713471 C11.1578072,6.69884766 11.1203369,6.62390716 11.1203369,6.5448033 C11.1203369,6.46986281 11.1578072,6.39492231 11.2077675,6.34079862 L11.2077675,6.34079862 Z M10.7248176,7.23592121 L10.7248176,7.23592121 C10.8996788,7.41494573 11.1411537,7.51902975 11.4117722,7.51902975 C11.686554,7.51902975 11.9238656,7.41494573 12.0987267,7.23592121 C12.2819146,7.06522341 12.3859986,6.81542176 12.3859986,6.5448033 C12.3859986,6.28251157 12.2819146,6.03687328 12.0987267,5.8536854 C11.9238656,5.6829876 11.6782273,5.57474022 11.4117722,5.57474022 C11.1453171,5.57474022 10.8996788,5.6829876 10.7248176,5.8536854 C10.5499565,6.03687328 10.4333824,6.28251157 10.4333824,6.5448033 C10.4333824,6.8112584 10.5499565,7.05689669 10.7206543,7.23592121 L10.7248176,7.23592121 Z M5.92029917,8.93873581 L5.92029917,8.93873581 L5.92029917,8.93457245 C5.9702595,8.88461212 6.04103664,8.85546859 6.12430386,8.85546859 C6.20757107,8.85546859 6.27834821,8.88461212 6.32830854,8.93457245 L6.32830854,8.93873581 C6.37826887,8.9928595 6.41157576,9.05947328 6.41157576,9.14274049 C6.41157576,9.21768099 6.37826887,9.29262149 6.32830854,9.34674518 C6.27834821,9.39670551 6.20757107,9.43001239 6.12430386,9.43001239 C6.04103664,9.43001239 5.9702595,9.39670551 5.92029917,9.34674518 C5.87033884,9.29262149 5.84119532,9.21768099 5.84119532,9.14274049 C5.84119532,9.05947328 5.87033884,8.9928595 5.92029917,8.93873581 L5.92029917,8.93873581 Z M5.43318595,9.8338584 L5.43318595,9.8338584 C5.61221047,10.0087196 5.85784876,10.1169669 6.12430386,10.1169669 C6.39492231,10.1169669 6.63223388,10.0087196 6.80709504,9.8338584 L6.81542176,9.82969504 C6.98611956,9.65067052 7.10269366,9.40503223 7.10269366,9.14274049 C7.10269366,8.86795868 6.98611956,8.63064711 6.81542176,8.45162259 L6.80709504,8.45162259 C6.63223388,8.27676143 6.39492231,8.16435069 6.12430386,8.16435069 C5.85784876,8.16435069 5.61221047,8.27676143 5.43318595,8.45162259 C5.25832479,8.63064711 5.15007741,8.86795868 5.15007741,9.14274049 C5.15007741,9.40503223 5.25832479,9.65067052 5.43318595,9.82969504 L5.43318595,9.8338584 Z M5.92029917,6.34079862 L5.92029917,6.34079862 C5.9702595,6.29083829 6.04103664,6.26169476 6.12430386,6.26169476 C6.20757107,6.26169476 6.27834821,6.29083829 6.32830854,6.34079862 C6.37826887,6.39492231 6.41157576,6.46986281 6.41157576,6.5448033 C6.41157576,6.62390716 6.37826887,6.69884766 6.32830854,6.75713471 C6.27834821,6.79876832 6.20757107,6.82791184 6.12430386,6.82791184 C6.04103664,6.82791184 5.96609614,6.79876832 5.92029917,6.75713471 C5.87033884,6.69884766 5.84119532,6.62390716 5.84119532,6.5448033 C5.84119532,6.46986281 5.87033884,6.39492231 5.92029917,6.34079862 L5.92029917,6.34079862 Z M5.43318595,7.23592121 C5.61221047,7.41494573 5.85784876,7.51902975 6.12430386,7.51902975 C6.39492231,7.51902975 6.63223388,7.41494573 6.81542176,7.23592121 C6.99444628,7.06522341 7.10269366,6.81542176 7.10269366,6.5448033 C7.10269366,6.28251157 6.98611956,6.03687328 6.81542176,5.8536854 L6.80709504,5.8536854 C6.63223388,5.6829876 6.39492231,5.57474022 6.12430386,5.57474022 C5.85784876,5.57474022 5.61221047,5.6829876 5.43318595,5.8536854 C5.25832479,6.03687328 5.15007741,6.28251157 5.15007741,6.5448033 C5.15007741,6.8112584 5.25832479,7.05689669 5.43318595,7.23592121 L5.43318595,7.23592121 Z" id="ic_calendar_green" fill="#2998FF"></path>
    </g>
</svg>