<?xml version="1.0" encoding="UTF-8"?>
<svg width="18px" height="18px" viewBox="0 0 18 18" version="1.1" xmlns="http://www.w3.org/2000/svg" xmlns:xlink="http://www.w3.org/1999/xlink">
    <!-- Generator: Sketch 58 (84663) - https://sketch.com -->
    <title>ic_history_grey</title>
    <desc>Created with Sketch.</desc>
    <g id="Dashboard" stroke="none" stroke-width="1" fill="none" fill-rule="evenodd">
        <path d="M8.31199285,4.28780092 L8.31199285,4.28780092 C8.31199285,3.89986057 8.63047972,3.59647133 9.00370652,3.59647133 C9.38190968,3.59647133 9.68049112,3.89986057 9.68049112,4.28780092 L9.68049112,8.60985424 L13.7411987,10.9424699 C14.0596856,11.1264929 14.1791181,11.5492484 13.9850402,11.8824792 C13.7959386,12.2057628 13.382901,12.3201555 13.049485,12.1212117 L8.70512508,9.60954666 C8.481189,9.50510119 8.31199285,9.27134226 8.31199285,9.00276818 L8.31199285,4.28780092 Z M1.3799271,9.41557649 L2.57922921,9.41557649 C2.80814165,9.41557649 2.99226687,9.22657991 2.99226687,9.00276818 C2.99226687,8.76900925 2.80814165,8.58995986 2.57922921,8.58995986 L1.23063638,8.58995986 L0.946984012,8.58995986 C0.265223059,8.58995986 -0.0234056661,8.71927331 0.00147612054,9.36584055 C0.0462633365,10.4550577 0.285128488,11.4845917 0.678260717,12.4494689 L0.698166146,12.4743369 C1.15599102,13.5685276 1.8228229,14.5483257 2.6389455,15.3639951 C4.26621435,16.995334 6.52050422,18 9.00370652,18 C10.2129614,18 11.377429,17.7562939 12.4473458,17.313644 L12.4772039,17.2987232 C13.5720025,16.836179 14.5473686,16.1896117 15.3734439,15.3639951 C16.9957364,13.7376298 18.0009606,11.4746445 18.0009606,9.00276818 C18.0009606,7.78423761 17.7571191,6.63036376 17.3191996,5.56104102 L17.3042705,5.52125227 C16.8464457,4.43203515 16.1895665,3.4522371 15.3734439,2.63656766 C14.5473686,1.81095103 13.5471208,1.14946301 12.4473458,0.691892344 C11.377429,0.244268871 10.2129614,0.000562757086 9.00370652,0.000562757086 C7.78449898,0.000562757086 6.62500772,0.244268871 5.5550909,0.691892344 L5.52025639,0.696865939 C4.93802259,0.940572052 4.400576,1.24893489 3.88801119,1.59708648 L3.94275112,0.721733909 C3.96265655,0.348714348 3.66905147,0.0204571337 3.29582467,0.000562757086 C2.91762151,-0.0143580254 2.59913464,0.269136841 2.57922921,0.647129997 L2.43491485,3.0294816 C2.41998578,3.23837255 2.47472571,3.44228991 2.6389455,3.60641852 C2.76833079,3.74070556 2.94747966,3.81033588 3.12662852,3.81033588 L5.52025639,3.94959652 C5.89845955,3.96949089 6.21197006,3.67604884 6.23685185,3.30302928 C6.25675728,2.92503612 5.96812855,2.6017525 5.59490175,2.58185812 L4.92806987,2.54704296 C5.28139124,2.32323123 5.66457076,2.12428746 6.05272663,1.96513245 L6.08258477,1.94523807 C6.85889651,1.62692805 7.6999009,1.42798428 8.59066886,1.38322193 L8.59066886,2.58185812 C8.59066886,2.81064345 8.77479408,2.99466644 8.99873016,2.99466644 C9.2276426,2.99466644 9.41674418,2.81064345 9.41674418,2.58185812 L9.41674418,1.38322193 C10.2925831,1.42798428 11.1435402,1.62692805 11.9198519,1.94523807 C12.1089535,2.01984198 12.283126,2.10936668 12.4572985,2.19889137 L12.2433151,2.56196375 C12.1338353,2.76090751 12.2035043,3.00461363 12.3926059,3.12397989 C12.5916602,3.23837255 12.840478,3.16376864 12.9599106,2.96482487 L13.1689176,2.6017525 C13.6167898,2.90016815 14.0148983,3.23837255 14.3980779,3.60641852 C14.7713047,3.98441167 15.109697,4.39224639 15.3983257,4.82992268 L15.0350516,5.04378723 C14.8409737,5.15817989 14.7713047,5.4118332 14.8857609,5.60580337 C15.0051935,5.80474713 15.249035,5.86443026 15.4381365,5.7500376 L15.8113633,5.54114664 C15.8909851,5.71024885 15.9755831,5.87437745 16.0452521,6.05342684 L16.0651576,6.07829481 C16.3786681,6.86412269 16.572746,7.7046601 16.6274859,8.58995986 L15.4182311,8.58995986 C15.194295,8.58995986 15.0151462,8.76900925 15.0151462,9.00276818 C15.0151462,9.22657991 15.194295,9.41557649 15.4182311,9.41557649 L16.6274859,9.41557649 C16.5627933,10.49982 16.2791409,11.5343276 15.8113633,12.4594161 L15.4480893,12.2505252 C15.249035,12.1311589 15.0051935,12.2057628 14.8857609,12.3947594 C14.7713047,12.5887296 14.8409737,12.8423829 15.0350516,12.9518019 L15.3983257,13.1656665 C15.109697,13.61329 14.7713047,14.0211247 14.3980779,14.3891706 C14.0148983,14.7671638 13.6167898,15.1003946 13.1689176,15.3938367 L12.9599106,15.0307643 C12.840478,14.8318205 12.5916602,14.7671638 12.3926059,14.8865301 C12.2035043,14.9909755 12.1338353,15.2446288 12.2433151,15.438599 L12.4572985,15.7966978 C12.2930787,15.8911961 12.1288589,15.9707736 11.9447337,16.0304567 L11.9198519,16.0503511 C11.1435402,16.3736347 10.2925831,16.5725785 9.41674418,16.6173408 L9.41674418,15.413731 C9.41674418,15.1899193 9.2276426,15.0108699 8.99873016,15.0108699 C8.77479408,15.0108699 8.59066886,15.1899193 8.59066886,15.413731 L8.59066886,16.6173408 C7.49587025,16.5626313 6.46576429,16.2741628 5.54513818,15.7966978 L5.74916883,15.438599 C5.86362505,15.2446288 5.7989324,14.9909755 5.59987811,14.8865301 C5.40580018,14.7671638 5.15200595,14.8318205 5.04252609,15.0307643 L4.83351908,15.3938367 C4.39062328,15.1003946 3.97758562,14.7671638 3.60435882,14.3891706 C3.23610838,14.0161511 2.89273973,13.61329 2.59913464,13.1656665 L2.96738509,12.9567755 C3.16146302,12.8423829 3.23610838,12.5937032 3.11667581,12.3947594 C3.0121723,12.2057628 2.75837808,12.1311589 2.56430014,12.2505252 L2.1960497,12.4594161 C2.10647527,12.2853403 2.02685355,12.1212117 1.96216091,11.9421623 L1.94225548,11.9172943 C1.61879225,11.1364401 1.41973796,10.2959027 1.3799271,9.41557649 L1.3799271,9.41557649 Z" id="ic_history_grey" fill="#2998FF"></path>
    </g>
</svg>